HIERARCHY
ROOT Hips
{
 OFFSET 0.000000 0.000000 0.000000
 CHANNELS 6 Xposition Yposition Zposition Yrotation Xrotation Zrotation
 JOINT Chest
 {
  OFFSET 0.000000 9.585900 0.002600
  CHANNELS 3 Yrotation Xrotation Zrotation
  JOINT Chest2
  {
   OFFSET 0.000000 9.601200 -0.005300
   CHANNELS 3 Yrotation Xrotation Zrotation
   JOINT Chest3
   {
    OFFSET 0.000000 9.561800 0.000000
    CHANNELS 3 Yrotation Xrotation Zrotation
    JOINT Chest4
    {
     OFFSET 0.000000 9.552100 0.000000
     CHANNELS 3 Yrotation Xrotation Zrotation
     JOINT Neck
     {
      OFFSET 0.000000 14.453000 0.000000
      CHANNELS 3 Yrotation Xrotation Zrotation
      JOINT Head
      {
       OFFSET 0.000000 8.936500 -0.011300
       CHANNELS 3 Yrotation Xrotation Zrotation
       End Site
       {
        OFFSET 0.000000 17.073600 -0.006000
       }
      }
     }
     JOINT RightCollar
     {
      OFFSET -2.921100 9.558500 0.000000
      CHANNELS 3 Yrotation Xrotation Zrotation
      JOINT RightShoulder
      {
       OFFSET -13.519700 0.000000 0.000000
       CHANNELS 3 Yrotation Xrotation Zrotation
       JOINT RightElbow
       {
        OFFSET 0.000000 -29.696600 0.000000
        CHANNELS 3 Yrotation Xrotation Zrotation
        JOINT RightWrist
        {
         OFFSET 0.000000 -24.004700 0.000000
         CHANNELS 3 Yrotation Xrotation Zrotation
         End Site
         {
          OFFSET 0.000000 -17.728500 0.000000
         }
        }
       }
      }
     }
     JOINT LeftCollar
     {
      OFFSET 2.921100 9.558500 0.000000
      CHANNELS 3 Yrotation Xrotation Zrotation
      JOINT LeftShoulder
      {
       OFFSET 13.519700 0.000000 0.000000
       CHANNELS 3 Yrotation Xrotation Zrotation
       JOINT LeftElbow
       {
        OFFSET 0.000000 -29.696600 0.000000
        CHANNELS 3 Yrotation Xrotation Zrotation
        JOINT LeftWrist
        {
         OFFSET 0.000000 -24.004700 0.000000
         CHANNELS 3 Yrotation Xrotation Zrotation
         End Site
         {
          OFFSET 0.000000 -17.728500 0.000000
         }
        }
       }
      }
     }
    }
   }
  }
 }
 JOINT RightHip
 {
  OFFSET -7.771700 -0.012900 -0.001300
  CHANNELS 3 Yrotation Xrotation Zrotation
  JOINT RightKnee
  {
   OFFSET 0.000000 -40.869800 0.001200
   CHANNELS 3 Yrotation Xrotation Zrotation
   JOINT RightAnkle
   {
    OFFSET 0.000000 -39.717900 0.002100
    CHANNELS 3 Yrotation Xrotation Zrotation
    JOINT RightToe
    {
     OFFSET 0.000000 -4.965400 11.033500
     CHANNELS 3 Yrotation Xrotation Zrotation
     End Site
     {
      OFFSET 0.000000 -1.423100 5.872300
     }
    }
   }
  }
 }
 JOINT LeftHip
 {
  OFFSET 7.771700 -0.012900 -0.001300
  CHANNELS 3 Yrotation Xrotation Zrotation
  JOINT LeftKnee
  {
   OFFSET 0.000000 -40.869800 0.001200
   CHANNELS 3 Yrotation Xrotation Zrotation
   JOINT LeftAnkle
   {
    OFFSET 0.000000 -39.717900 0.002100
    CHANNELS 3 Yrotation Xrotation Zrotation
    JOINT LeftToe
    {
     OFFSET 0.000000 -4.965400 11.033500
     CHANNELS 3 Yrotation Xrotation Zrotation
     End Site
     {
      OFFSET 0.000000 -1.423100 5.872300
     }
    }
   }
  }
 }
}
MOTION
Frames: 16
Frame Time: 0.008333
0.000000 85.388000 0.000000 0.000000 -5.767877 0.000000 0.000000 11.653817 0.000000 0.000000 -5.885947 0.000000 0.000000 -0.000000 0.000000 0.000000 -0.000000 0.000000 0.000000 12.528835 0.000000 0.000000 0.711642 0.000000 0.000000 -0.000000 0.000000 0.000000 0.000000 -90.000000 0.000000 -2.309062 0.000000 0.000000 2.309062 0.000000 0.000000 -0.000000 0.000000 0.000000 -0.000000 90.000000 0.000000 -2.309062 0.000000 0.000000 2.309062 0.000000 0.000000 8.520406 0.000000 0.000000 1.905762 0.000000 -0.000000 -4.658285 0.000000 0.000000 -0.000000 0.000000 0.000000 8.520406 0.000000 0.000000 1.905762 0.000000 -0.000000 -4.658285 0.000000 0.000000 -0.000000 0.000000
-52.030942 52.990114 -14.587559 -177.396213 -15.763270 -2.441105 -0.115909 17.945343 1.034335 -0.033233 2.001092 0.126561 -0.036628 3.269974 0.199242 -0.099087 15.685264 0.967410 -5.477654 22.328680 -0.811033 -5.752968 -1.670160 0.376652 4.230947 2.344662 1.220584 -3.712677 -21.851321 -10.670185 -122.046705 -68.474973 148.550900 -8.702367 -10.209751 -7.559276 -5.005889 0.633974 -2.150687 2.363680 -10.103861 12.481873 70.076647 -53.893764 -113.277842 3.306101 4.770471 1.020029 2.783721 -62.780661 10.294169 166.077666 86.397447 164.597638 -12.215244 -23.550838 12.678988 0.003708 -0.043708 0.045737 4.459300 -61.181665 -3.729531 121.385760 78.026758 119.777869 -6.318528 -19.727993 -0.869448 0.024275 0.088980 -0.001461
-52.030621 52.986814 -14.586273 -177.391682 -15.803635 -2.435886 -0.102523 17.913476 1.021168 -0.028856 1.996756 0.124173 -0.036297 3.263324 0.196921 -0.086655 15.671583 0.955406 -5.489067 22.327710 -0.813401 -5.765068 -1.670610 0.376661 4.206264 2.360324 1.252003 -3.676607 -21.670998 -10.446328 -121.981225 -68.591234 148.467158 -8.638516 -10.150136 -7.627900 -5.009078 0.631458 -2.147166 2.355454 -10.044210 12.488465 70.175090 -53.894226 -113.358510 3.307908 4.775141 1.018381 2.795707 -62.749954 10.319235 166.580797 86.403499 165.111541 -12.401999 -23.526012 12.704577 -0.003766 -0.034034 0.061492 4.452241 -61.145746 -3.708896 121.433528 78.032008 119.807247 -6.331340 -19.728033 -0.854524 0.025623 0.089915 0.000377
-52.031763 52.981687 -14.579760 -177.391517 -15.821343 -2.420028 -0.094217 17.859145 0.997583 -0.036907 2.049144 0.131566 -0.025006 3.199106 0.184732 -0.085645 15.706446 0.957714 -5.493505 22.326879 -0.815329 -5.768963 -1.726545 0.362469 4.201722 2.327215 1.263693 -3.605357 -21.473389 -10.242916 -122.041352 -68.719232 148.471062 -8.568513 -10.133828 -7.681406 -4.994812 0.578925 -2.156960 2.382062 -10.046975 12.450212 70.046963 -53.913516 -113.253704 3.307878 4.777949 1.017174 2.849628 -62.741541 10.277297 166.712625 86.404045 165.229875 -12.388917 -23.510392 12.701027 0.000480 -0.035070 0.066702 4.488062 -61.130549 -3.737015 121.457006 78.038737 119.830429 -6.346884 -19.764439 -0.852590 0.046657 0.125577 0.011695
-52.031311 52.977677 -14.577357 -177.389345 -15.871972 -2.417297 -0.085713 17.837308 0.987709 -0.025198 1.988176 0.120293 -0.033778 3.247626 0.192077 -0.083236 15.742274 0.958636 -5.492707 22.245545 -0.838179 -5.770237 -1.704008 0.361580 4.201569 2.291931 1.272741 -3.505864 -21.260626 -10.052016 -122.165663 -68.852148 148.513910 -8.507003 -10.157205 -7.708201 -4.984870 0.553032 -2.161428 2.413755 -10.073010 12.405144 70.052141 -53.928559 -113.255717 3.308392 4.774881 1.023474 2.859582 -62.698426 10.273857 166.664885 86.399449 165.171333 -12.377292 -23.504063 12.682981 0.000860 -0.034974 0.070455 4.504251 -61.082811 -3.740708 121.476367 78.045215 119.851409 -6.348405 -19.767376 -0.847909 0.045588 0.130728 0.014386
-52.032808 52.973646 -14.574786 -177.389053 -15.928201 -2.405320 -0.078524 17.820099 0.969001 -0.022430 1.963543 0.116011 -0.034941 3.259092 0.192236 -0.071295 15.649826 0.928253 -5.493870 22.292416 -0.836883 -5.767319 -1.681570 0.357668 4.195418 2.308061 1.320405 -3.392314 -20.966782 -9.870914 -122.279806 -68.984263 148.541798 -8.460090 -10.203522 -7.712832 -4.977153 0.638676 -2.148895 2.428214 -10.054667 12.377872 70.098817 -53.936771 -113.290429 3.309400 4.770788 1.035027 2.900246 -62.658428 10.300511 167.574328 86.412126 166.128441 -12.752178 -23.458000 12.724365 -0.015818 -0.017426 0.091022 4.543619 -61.027861 -3.768165 121.490246 78.051082 119.871884 -6.357243 -19.770751 -0.846681 0.048821 0.134026 0.021656
-52.033988 52.969627 -14.571486 -177.384016 -15.984343 -2.399894 -0.073627 17.802466 0.954737 -0.027511 1.997875 0.120614 -0.028742 3.210890 0.183357 -0.065793 15.606748 0.911702 -5.492414 22.313750 -0.839377 -5.762395 -1.687326 0.349447 4.192465 2.321760 1.354729 -3.270717 -20.718570 -9.695460 -122.322543 -69.103402 148.514243 -8.423115 -10.244016 -7.715979 -4.958961 0.652753 -2.149556 2.442060 -10.012111 12.353410 70.093185 -53.940780 -113.281511 3.317792 4.816845 1.036950 2.924037 -62.612506 10.293050 167.814883 86.412625 166.377306 -12.808811 -23.442692 12.716874 -0.017439 -0.018179 0.092572 4.573258 -60.973389 -3.788038 121.497661 78.056302 119.886766 -6.366497 -19.774508 -0.842332 0.053040 0.136200 0.025510
-52.036682 52.966797 -14.571501 -177.357160 -16.064081 -2.396064 -0.091376 17.827659 0.937230 -0.031961 2.013240 0.122601 -0.018295 3.163369 0.173953 -0.060228 15.589572 0.902554 -5.491081 22.307186 -0.844556 -5.759595 -1.695199 0.343614 4.183905 2.328166 1.383199 -3.155056 -20.494077 -9.519191 -122.262649 -69.205919 148.414751 -8.393855 -10.262634 -7.736037 -4.959567 0.688940 -2.142371 2.473094 -10.014858 12.317100 70.008737 -53.951393 -113.213865 3.315722 4.814864 1.038774 2.946287 -62.532009 10.211282 167.137144 86.386767 165.649101 -12.439755 -23.474968 12.657243 0.000612 -0.041658 0.073956 4.582658 -60.893432 -3.808454 121.439481 78.057970 119.824663 -6.375911 -19.763253 -0.828190 0.044582 0.136383 0.024250
-52.037227 52.962086 -14.563836 -177.357934 -16.099217 -2.398811 -0.073206 17.788174 0.932362 -0.019992 1.949428 0.112003 -0.026469 3.214912 0.181438 -0.051207 15.573929 0.894186 -5.492104 22.298003 -0.847997 -5.759804 -1.705917 0.340170 4.167619 2.325725 1.413090 -3.056947 -20.269899 -9.336807 -122.116340 -69.304226 148.266610 -8.373631 -10.259839 -7.777599 -4.964325 0.701279 -2.137021 2.500699 -9.991266 12.287667 70.020990 -53.937442 -113.219731 3.317827 4.816482 1.046374 2.971263 -62.506613 10.179584 166.882537 86.381892 165.371352 -12.233535 -23.476278 12.616327 0.008438 -0.050711 0.066328 4.611221 -60.860434 -3.815764 121.433091 78.066663 119.826678 -6.383833 -19.769670 -0.824369 0.047794 0.147484 0.030207
-52.038071 52.957697 -14.556421 -177.363029 -16.137743 -2.401651 -0.045940 17.733067 0.926755 -0.018247 1.943740 0.110339 -0.028278 3.227712 0.183028 -0.040966 15.559144 0.885543 -5.494158 22.287013 -0.851394 -5.761057 -1.718801 0.336946 4.149238 2.317042 1.445595 -2.977166 -20.046008 -9.152213 -121.926428 -69.405836 148.107051 -8.361511 -10.235511 -7.833310 -4.968805 0.688188 -2.133516 2.525713 -9.940065 12.262982 70.018735 -53.917463 -113.213071 3.344880 4.738585 1.085090 3.034778 -62.486632 10.169996 167.600179 86.396763 166.128532 -12.344091 -23.443692 12.622298 0.000885 -0.042536 0.074277 4.652183 -60.824424 -3.828095 121.442798 78.077423 119.854893 -6.397731 -19.776171 -0.825736 0.061840 0.155195 0.038102
-52.043216 52.955600 -14.556436 -177.348514 -16.223389 -2.388761 -0.047271 17.744770 0.901452 -0.016924 1.939182 0.108979 -0.026055 3.220576 0.180730 -0.031445 15.544213 0.876792 -5.496237 22.275245 -0.855578 -5.762074 -1.732729 0.332818 4.132416 2.304840 1.478447 -2.908783 -19.820818 -8.972015 -121.717051 -69.505685 147.945647 -8.353865 -10.190934 -7.885384 -4.977743 0.695620 -2.125324 2.556695 -9.904764 12.232391 69.930533 -53.921080 -113.143796 3.386073 4.647280 1.129733 3.076854 -62.411527 10.157289 168.255104 86.401448 166.829734 -12.551823 -23.421001 12.630172 -0.010648 -0.030674 0.083689 4.678691 -60.737792 -3.858855 121.418378 78.081779 119.828863 -6.403585 -19.767028 -0.815470 0.063549 0.150561 0.034330
-52.049038 52.952520 -14.552209 -177.334851 -16.282781 -2.372304 -0.051901 17.731261 0.872306 -0.015834 1.934515 0.107556 -0.024156 3.213164 0.178397 -0.023663 15.528712 0.867451 -5.497032 22.262563 -0.859299 -5.761835 -1.747732 0.328991 4.117774 2.289025 1.510454 -2.843727 -19.589990 -8.799974 -121.483418 -69.596563 147.769475 -8.345173 -10.135758 -7.914458 -4.985231 0.699963 -2.116172 2.588447 -9.862341 12.202350 69.843982 -53.923246 -113.076764 3.425122 4.586262 1.172648 3.111263 -62.360830 10.121919 168.476562 86.399161 167.065562 -12.577417 -23.413891 12.612378 -0.013842 -0.027916 0.081451 4.713548 -60.677569 -3.899570 121.382111 78.087234 119.781005 -6.398729 -19.759437 -0.802699 0.049510 0.153767 0.035708
-52.048984 52.949642 -14.546963 -177.327790 -16.334256 -2.390096 -0.045788 17.746759 0.884676 -0.012245 1.912997 0.103109 -0.026253 3.228485 0.181010 -0.013041 15.471172 0.847581 -5.499709 22.306756 -0.847765 -5.757725 -1.825808 0.319554 4.102535 2.268782 1.542882 -2.774493 -19.350151 -8.636362 -121.223163 -69.680542 147.569811 -8.332703 -10.084058 -7.907887 -4.991315 0.699644 -2.104207 2.600065 -9.787611 12.195757 69.894170 -53.875738 -113.110746 3.446787 4.590062 1.221566 3.087472 -62.311328 10.125710 168.210716 86.397747 166.771893 -12.297708 -23.429702 12.557484 -0.005021 -0.039508 0.062803 4.746440 -60.634983 -3.902917 121.410175 78.097866 119.836233 -6.414143 -19.752414 -0.801839 0.059639 0.151025 0.045954
-52.049331 52.947306 -14.542216 -177.326561 -16.388341 -2.404645 -0.034383 17.764937 0.894623 -0.014986 1.929684 0.106083 -0.012800 3.143624 0.161078 -0.007675 15.476681 0.843154 -5.496976 22.258839 -0.852481 -5.757456 -1.817209 0.325663 4.084171 2.244697 1.575308 -2.696029 -19.102022 -8.478705 -120.952026 -69.764054 147.352952 -8.313257 -10.035052 -7.863956 -4.996402 0.693274 -2.090781 2.609208 -9.708476 12.190222 69.907578 -53.842614 -113.117591 3.470104 4.580519 1.282522 3.080960 -62.259505 10.118907 167.919302 86.395520 166.455308 -12.013999 -23.446695 12.505418 -0.002141 -0.050014 0.047831 4.753175 -60.586773 -3.889038 121.427149 78.102910 119.869243 -6.416336 -19.755132 -0.815162 0.062783 0.154232 0.057891
-52.051596 52.945359 -14.537326 -177.325263 -16.441156 -2.407804 -0.020095 17.747514 0.885320 -0.013758 1.925075 0.104747 -0.009877 3.114566 0.154284 -0.000880 15.482051 0.839897 -5.494105 22.209182 -0.854740 -5.758623 -1.810908 0.333563 4.062897 2.220383 1.604547 -2.609673 -18.851256 -8.325172 -120.663339 -69.842747 147.114248 -8.278512 -9.968763 -7.792083 -5.001284 0.682678 -2.079156 2.640783 -9.696984 12.137399 69.770920 -53.833375 -112.989458 3.470960 4.603063 1.314939 3.092298 -62.211946 10.114355 167.898244 86.398546 166.438148 -11.935383 -23.447563 12.477426 -0.012952 -0.051549 0.051167 4.781247 -60.538052 -3.896756 121.433637 78.108162 119.880911 -6.421272 -19.752367 -0.805441 0.062013 0.153707 0.056978
-52.053952 52.943407 -14.530647 -177.323963 -16.482202 -2.409600 -0.011197 17.717554 0.873495 -0.012536 1.920359 0.103336 -0.007390 3.105401 0.152978 0.001080 15.517370 0.845435 -5.490005 22.137747 -0.861573 -5.759307 -1.835634 0.338893 4.043638 2.149665 1.609283 -2.517951 -18.603242 -8.175445 -120.348805 -69.916058 146.852214 -8.230617 -9.875702 -7.709821 -4.998738 0.618699 -2.080319 2.652164 -9.654200 12.110544 69.658006 -53.836696 -112.879824 3.489796 4.569489 1.392005 3.106648 -62.177001 10.107295 167.881979 86.404447 166.426238 -11.882189 -23.443949 12.454002 -0.044544 -0.047983 0.048007 4.810108 -60.500417 -3.907526 121.413974 78.113444 119.867281 -6.431935 -19.745528 -0.793932 0.069408 0.150491 0.046850
